<?xml version="1.0" standalone="no"?>
<!DOCTYPE svg PUBLIC "-//W3C//DTD SVG 20010904//EN"
 "http://www.w3.org/TR/2001/REC-SVG-20010904/DTD/svg10.dtd">
<svg version="1.0" xmlns="http://www.w3.org/2000/svg"
 width="398.000000pt" height="398.000000pt" viewBox="0 0 398.000000 398.000000"
 preserveAspectRatio="xMidYMid meet">
<metadata>
Created by potrace 1.14, written by Peter Selinger 2001-2017
</metadata>
<g transform="translate(0.000000,398.000000) scale(0.100000,-0.100000)"
fill="#000000" stroke="none">
<path d="M562 3968 c-19 -19 -14 -30 8 -18 11 6 20 15 20 20 0 14 -14 12 -28
-2z"/>
<path d="M711 3965 c9 -9 23 -13 32 -9 28 10 19 24 -15 24 -29 0 -31 -2 -17
-15z"/>
<path d="M793 3965 c-15 -17 -17 -35 -4 -35 5 0 16 -3 25 -6 19 -7 21 15 4 38
-11 14 -15 15 -25 3z"/>
<path d="M867 3973 c-10 -10 -8 -35 7 -68 l14 -30 -5 41 c-5 40 -4 41 28 48
26 5 37 2 46 -11 7 -9 16 -14 19 -10 4 4 1 13 -6 22 -13 15 -90 22 -103 8z"/>
<path d="M1240 3969 c0 -5 5 -7 10 -4 6 3 10 8 10 11 0 2 -4 4 -10 4 -5 0 -10
-5 -10 -11z"/>
<path d="M1318 3948 c3 -18 7 -27 9 -20 3 6 12 12 20 12 9 0 13 -6 9 -15 -3
-8 -1 -15 4 -15 6 0 10 6 10 14 0 8 3 21 6 29 3 8 -2 17 -11 21 -9 3 -13 2
-10 -4 3 -6 1 -10 -4 -10 -6 0 -11 5 -11 10 0 6 -6 10 -13 10 -10 0 -12 -10
-9 -32z"/>
<path d="M1424 3963 c2 -12 10 -17 22 -15 35 7 34 15 -3 26 -17 5 -21 3 -19
-11z"/>
<path d="M71 3924 c0 -11 3 -14 6 -6 3 7 2 16 -1 19 -3 4 -6 -2 -5 -13z"/>
<path d="M630 3934 c0 -6 7 -19 16 -30 14 -18 14 -18 3 6 -14 31 -19 36 -19
24z"/>
<path d="M1290 3930 c0 -5 5 -10 10 -10 6 0 10 5 10 10 0 6 -4 10 -10 10 -5 0
-10 -4 -10 -10z"/>
<path d="M908 3875 c2 -14 6 -25 8 -25 2 0 4 11 4 25 0 14 -4 25 -9 25 -4 0
-6 -11 -3 -25z"/>
<path d="M1288 3893 c7 -3 16 -2 19 1 4 3 -2 6 -13 5 -11 0 -14 -3 -6 -6z"/>
<path d="M1980 3858 c0 -26 -11 -33 -41 -30 -4 1 -22 -3 -40 -9 -19 -6 -45
-12 -59 -15 -53 -9 -160 -47 -160 -56 0 -5 -4 -6 -10 -3 -12 7 -139 -61 -162
-88 -9 -10 -37 -33 -61 -50 -24 -18 -57 -47 -72 -64 -15 -18 -33 -33 -41 -33
-9 0 -13 -4 -10 -8 3 -5 -8 -22 -24 -37 -17 -16 -30 -33 -30 -38 0 -4 -7 -15
-15 -23 -8 -9 -15 -24 -15 -35 0 -10 -4 -19 -9 -19 -5 0 -38 -56 -73 -125 -79
-156 -78 -154 -112 -204 -16 -23 -26 -44 -23 -48 4 -3 9 2 13 11 5 13 9 14 20
5 14 -11 10 -53 -8 -74 -5 -5 -22 -25 -38 -44 -31 -36 -74 -136 -65 -151 3 -5
1 -11 -5 -15 -6 -4 -8 -28 -3 -62 l6 -56 -26 7 c-25 6 -27 4 -27 -24 0 -20 -5
-30 -15 -30 -9 0 -16 -10 -16 -27 -2 -22 -3 -19 -9 12 -6 35 -7 31 -9 -30 -1
-50 4 -77 15 -93 9 -13 13 -31 9 -45 -12 -41 -36 -87 -45 -87 -6 0 -10 -6 -10
-14 0 -7 -6 -19 -14 -25 -8 -7 -17 -27 -20 -46 -4 -19 -11 -35 -16 -35 -9 0
-40 123 -40 162 -1 22 -1 22 -18 -4 -18 -31 -32 -36 -32 -13 0 9 -8 19 -18 22
-9 4 -22 14 -29 22 -10 14 -13 13 -22 -9 -9 -24 -10 -24 -10 -2 -1 35 -40 29
-54 -8 -6 -16 -17 -30 -24 -30 -7 0 -17 -9 -23 -20 -6 -11 -17 -20 -25 -20 -7
0 -24 -14 -37 -30 l-24 -31 -18 41 c-25 57 -50 51 -63 -14 -6 -32 -13 -32 -13
0 -1 42 -11 138 -16 143 -2 2 -10 -1 -17 -8 -8 -6 -22 -9 -31 -5 -14 5 -16 -2
-16 -49 0 -45 -3 -56 -17 -59 -10 -2 -23 3 -30 12 -9 11 -12 11 -13 2 0 -9 -6
-7 -19 5 -14 14 -18 30 -16 68 3 54 -8 77 -30 68 -18 -6 -39 14 -47 45 -5 18
-3 22 8 18 8 -3 14 -1 14 3 0 5 -6 12 -12 14 -8 3 -6 6 5 6 19 1 23 16 6 27
-6 3 -15 1 -19 -6 -5 -8 -17 -10 -34 -6 l-26 6 0 -74 c0 -50 4 -76 13 -79 9
-4 9 -6 0 -6 -10 -1 -13 -158 -13 -710 l0 -710 27 -4 28 -4 -27 -2 -27 -1 -1
-439 c0 -241 2 -445 6 -455 6 -15 55 -16 560 -16 l554 0 1 28 c1 16 3 20 6 10
2 -10 11 -18 19 -18 8 0 14 -4 14 -10 0 -5 13 -10 30 -10 28 0 30 3 36 50 4
27 10 47 15 44 5 -3 9 0 9 5 0 6 -7 11 -15 11 -8 0 -15 4 -15 10 0 5 7 7 15 4
8 -4 15 -1 15 5 0 6 -4 11 -10 11 -5 0 -10 9 -10 20 0 11 5 20 10 20 6 0 10
-7 10 -15 0 -20 16 -19 24 1 9 22 8 24 -9 24 -22 0 -18 17 7 34 12 9 18 16 13
16 -6 0 -2 5 8 11 9 6 15 14 12 20 -4 5 -1 9 4 9 6 0 11 4 11 10 0 5 -7 7 -16
3 -13 -5 -10 4 10 33 14 21 32 39 39 39 6 0 12 9 12 20 0 13 6 19 18 17 13 -2
17 4 17 24 0 15 3 25 6 21 4 -3 23 5 43 18 19 14 41 25 48 25 7 0 13 10 13 23
0 18 2 19 10 7 8 -12 10 -12 10 5 0 11 4 16 8 10 9 -12 42 -16 42 -5 0 5 -6
11 -12 13 -7 2 -1 3 15 1 19 -2 27 1 27 11 0 8 7 15 16 15 8 0 30 11 48 25 18
14 37 25 43 25 5 0 18 8 29 19 11 10 30 23 41 29 20 11 26 53 12 77 -4 6 -10
33 -13 60 -4 28 -9 57 -11 65 -3 9 6 20 22 28 36 16 43 15 37 -6 -5 -16 -5
-15 6 1 13 20 49 15 63 -9 4 -8 21 -14 37 -14 23 0 30 -5 30 -20 0 -13 7 -20
19 -20 11 0 23 -4 26 -10 3 -5 15 -10 26 -10 11 0 19 -7 19 -16 0 -12 6 -15
26 -10 17 5 23 3 19 -4 -3 -5 -16 -10 -27 -10 -27 0 -15 -13 15 -15 12 -1 27
5 34 14 10 14 13 13 20 -7 8 -21 11 -22 22 -8 7 8 19 12 28 9 8 -3 18 0 23 6
4 8 10 0 15 -21 l8 -33 6 35 c5 29 8 32 14 15 7 -16 10 -17 17 -5 7 12 11 10
19 -10 l10 -25 0 27 c1 14 -5 28 -11 31 -7 3 -4 5 8 4 18 -1 20 -6 18 -46 l-3
-46 10 43 c6 25 16 42 25 42 8 0 14 -6 14 -12 1 -8 6 -6 14 4 7 10 16 15 20
11 3 -4 13 2 21 13 11 15 15 16 15 4 1 -8 7 -2 14 14 l13 28 6 -31 c5 -22 12
-31 27 -31 11 0 20 5 20 11 0 6 -7 9 -15 5 -9 -3 -15 0 -15 9 0 8 6 15 14 15
8 0 17 8 19 18 3 11 5 8 6 -9 1 -32 10 -42 27 -28 14 11 34 4 34 -12 0 -5 -6
-9 -14 -9 -10 0 -12 -7 -8 -22 5 -19 7 -20 10 -6 4 22 22 24 22 3 0 -8 7 -15
15 -15 18 0 20 -36 3 -43 -8 -3 -6 -6 5 -6 9 -1 17 3 17 9 0 5 7 7 15 4 17 -7
48 -64 34 -64 -5 0 -9 -5 -9 -11 0 -6 7 -9 15 -6 18 8 28 -8 30 -47 1 -17 8
-48 15 -68 13 -34 12 -39 -3 -50 -26 -20 -28 -148 -2 -148 18 0 19 -23 4 -52
-13 -25 -5 -35 16 -18 13 10 15 9 15 -10 0 -14 -5 -20 -13 -17 -37 14 -59 -42
-55 -136 l3 -77 638 1 637 0 0 225 c0 172 -3 224 -12 224 -10 0 -10 2 -1 8 10
6 12 177 10 777 l-2 769 -165 3 c-183 3 -250 10 -250 24 0 5 -9 9 -20 9 -11 0
-19 3 -19 8 4 21 -2 46 -9 37 -11 -17 -109 -37 -134 -29 -13 4 -27 8 -33 8 -5
1 -18 6 -29 12 -14 9 -16 15 -8 29 8 15 22 18 85 18 42 -1 80 -3 84 -6 12 -7
126 -1 148 7 13 5 15 5 8 -1 -8 -6 48 -10 145 -10 86 -1 167 -5 180 -9 l23 -6
-1 218 -1 219 -25 1 c-13 1 -24 -2 -24 -7 0 -5 -7 -9 -15 -9 -8 0 -15 -4 -15
-10 0 -5 -4 -10 -9 -10 -5 0 -7 9 -4 20 6 21 -13 28 -20 8 -3 -10 -7 -10 -20
1 -10 8 -17 9 -17 3 0 -6 8 -15 18 -21 14 -8 15 -12 5 -22 -21 -21 -15 -32 12
-25 21 5 25 3 25 -18 0 -15 -7 -25 -20 -29 -11 -3 -20 -1 -20 4 0 17 -34 49
-52 49 -10 0 -18 5 -18 11 0 7 10 9 26 5 19 -5 25 -3 21 6 -2 7 -10 12 -18 11
-8 -2 -20 7 -27 18 -12 19 -11 20 7 14 16 -5 20 -3 15 9 -8 22 -48 22 -49 1 0
-5 -4 -10 -10 -11 -5 0 -9 9 -8 20 3 20 2 21 -6 1 -16 -34 -12 -45 17 -45 19
0 23 -3 13 -9 -7 -5 -10 -14 -7 -20 5 -7 -4 -11 -26 -10 -31 1 -32 1 -8 9 23
7 23 8 -9 9 -19 1 -31 -2 -28 -6 7 -6 -21 -32 -35 -33 -5 0 -8 7 -8 15 0 8 7
15 15 15 20 0 19 9 -5 28 -11 10 -29 33 -39 52 -16 31 -23 35 -60 36 -23 1
-44 -3 -47 -8 -13 -20 -24 7 -24 56 0 43 4 55 18 58 15 4 17 -1 14 -36 -3 -36
-2 -39 10 -23 7 10 25 23 38 30 18 9 25 21 27 42 1 20 0 23 -4 8 -6 -33 -24
-28 -20 5 2 15 10 27 17 27 7 0 14 10 15 23 1 12 -4 22 -11 22 -8 0 -11 -6 -7
-17 5 -12 2 -15 -9 -10 -9 3 -19 3 -23 -1 -4 -4 -10 -7 -13 -7 -23 -2 -51 -18
-46 -26 3 -6 12 -8 20 -5 8 3 14 1 14 -3 0 -12 -29 -23 -41 -15 -5 3 -8 0 -7
-6 2 -6 -7 -19 -19 -27 -21 -14 -23 -14 -23 1 0 9 5 16 10 16 6 0 10 5 10 11
0 8 -5 7 -15 -1 -9 -7 -19 -9 -23 -5 -4 4 -2 10 5 12 18 6 74 63 62 63 -5 0
-19 -9 -31 -20 -21 -19 -21 -19 -53 8 -24 20 -32 33 -28 50 6 25 -14 31 -23 7
-4 -8 -13 -15 -21 -15 -9 0 -13 -6 -9 -15 3 -10 -1 -15 -12 -15 -13 0 -14 -2
-4 -9 11 -7 10 -10 -3 -15 -9 -3 -18 -6 -20 -6 -2 0 -3 21 -3 48 1 26 3 40 5
31 3 -14 8 -15 28 -5 32 14 32 26 -1 26 -16 0 -23 4 -18 11 5 8 1 8 -14 0 -26
-14 -35 -14 -27 -1 3 6 -1 10 -9 10 -9 0 -16 7 -16 15 0 8 -4 15 -9 15 -5 0
-12 17 -16 37 -10 54 -32 118 -72 203 -54 117 -67 139 -147 245 -9 11 -26 33
-38 50 -13 16 -34 41 -48 56 -14 15 -34 38 -45 52 -12 13 -32 30 -45 37 -14 7
-31 21 -38 32 -7 10 -20 18 -28 18 -8 0 -14 3 -14 8 0 8 -37 31 -130 80 -56
29 -139 59 -190 67 -8 1 -22 5 -30 8 -8 3 -28 8 -45 10 -16 3 -41 8 -55 12
-14 3 -43 8 -65 9 -23 1 -46 5 -53 9 -6 4 -32 8 -57 9 -31 0 -45 5 -45 14 0 8
-7 14 -15 14 -9 0 -15 -7 -13 -17 2 -10 -5 -19 -16 -21 -13 -3 -17 0 -13 10 3
8 1 21 -4 29 -6 10 -9 7 -9 -13z m-259 -458 c16 0 29 -3 29 -7 0 -5 17 -9 37
-11 20 -1 41 -6 47 -11 7 -6 25 -8 41 -5 45 7 77 5 90 -6 7 -6 17 -10 21 -9
25 4 54 -2 49 -11 -3 -6 1 -7 9 -4 10 4 16 1 16 -8 0 -8 7 -23 15 -34 8 -10
14 -14 13 -7 -2 6 2 11 7 12 25 2 7 -25 -20 -30 l-30 -6 33 -2 c17 0 32 -5 32
-11 0 -5 7 -10 16 -10 13 0 15 -7 10 -32 -5 -25 -4 -30 5 -21 17 17 49 -2 49
-29 0 -12 8 -30 17 -40 12 -14 14 -21 5 -30 -8 -8 -7 -18 7 -37 10 -14 21 -43
24 -63 5 -33 3 -38 -14 -38 -16 0 -13 -6 17 -35 38 -37 45 -42 42 -24 -2 6 3
14 10 16 7 3 13 -1 11 -8 -3 -25 1 -39 11 -39 5 0 7 7 4 15 -10 25 19 16 50
-15 22 -22 35 -28 52 -24 25 6 34 -11 12 -19 -7 -2 -9 -8 -5 -13 4 -4 16 -3
27 4 18 11 19 9 13 -41 -4 -42 -12 -58 -38 -82 -18 -16 -30 -37 -28 -45 3 -11
2 -12 -5 -2 -7 10 -14 10 -38 -3 -16 -8 -22 -15 -14 -16 8 0 -10 -7 -40 -14
-30 -7 -58 -11 -63 -8 -4 2 -14 -1 -22 -7 -9 -7 -26 -9 -46 -5 -18 4 -63 7
-101 7 -37 -1 -70 4 -74 9 -4 6 -11 5 -21 -3 -12 -10 -17 -9 -28 5 -8 12 -15
14 -20 7 -3 -5 -19 -9 -35 -8 -16 1 -37 -6 -48 -15 -10 -9 -26 -17 -36 -17
-10 0 -16 -5 -14 -12 3 -7 -5 -21 -17 -33 -12 -11 -25 -33 -30 -50 -11 -45
-14 -148 -4 -167 6 -11 5 -18 -4 -22 -9 -5 -9 -7 1 -12 6 -3 12 -16 12 -28 0
-15 7 -22 20 -23 15 -1 20 4 20 25 1 23 2 25 11 9 13 -22 29 -13 29 16 0 18 2
19 10 7 8 -13 9 -13 14 0 12 38 12 47 5 72 -7 25 -3 28 48 53 69 34 116 38
121 10 9 -44 27 -52 98 -43 44 6 70 6 77 -1 7 -7 5 -12 -7 -17 -16 -6 -76 -61
-76 -70 0 -7 34 -4 73 7 32 9 37 14 33 32 -3 12 -3 16 0 10 9 -19 37 -16 30 3
-12 30 22 64 69 69 6 1 24 7 40 14 17 7 41 14 55 15 14 1 30 5 36 9 7 4 18 -7
29 -29 13 -28 15 -49 10 -95 -4 -32 -11 -62 -16 -65 -5 -3 -9 -17 -10 -32 0
-15 -3 -21 -6 -14 -7 17 -23 5 -23 -19 0 -10 -4 -19 -10 -19 -5 0 -10 -9 -10
-19 0 -11 -5 -23 -11 -26 -6 -4 -8 -13 -5 -21 4 -9 -4 -18 -19 -24 -14 -5 -25
-18 -25 -28 0 -9 -7 -28 -16 -40 -8 -12 -12 -22 -9 -22 4 0 -1 -7 -9 -16 -9
-8 -16 -21 -16 -29 0 -7 -6 -16 -12 -19 -10 -3 -8 -9 5 -19 9 -8 17 -20 17
-28 -1 -10 -4 -9 -14 4 -14 18 -32 24 -21 8 3 -6 -4 -15 -15 -21 -13 -7 -19
-18 -16 -26 3 -8 0 -14 -8 -14 -8 0 -11 -10 -8 -30 3 -18 0 -30 -7 -30 -6 0
-11 -13 -11 -29 0 -21 6 -30 21 -34 16 -4 20 -10 14 -24 -5 -10 -10 -37 -13
-60 -4 -42 -16 -56 -25 -30 -2 6 -7 -7 -11 -31 -6 -32 -17 -50 -42 -70 -19
-15 -34 -33 -34 -40 0 -7 -8 -16 -17 -19 -25 -9 -63 -46 -63 -60 0 -7 -11 -13
-25 -13 -14 0 -25 -6 -26 -12 0 -7 -4 -4 -9 7 -7 17 -9 15 -9 -12 -1 -32 -21
-49 -21 -18 0 29 -17 15 -30 -25 -8 -25 -18 -39 -26 -36 -7 3 -14 2 -16 -2 -2
-4 -25 -18 -51 -32 -39 -20 -49 -22 -56 -11 -6 9 -11 10 -15 2 -4 -6 -19 -11
-34 -11 -15 0 -33 -4 -41 -9 -10 -6 -30 -1 -63 17 -26 14 -48 29 -48 32 0 3
-10 17 -22 30 -72 77 -117 134 -112 141 3 5 1 9 -5 9 -5 0 -38 28 -71 61 -47
47 -60 66 -56 82 3 12 0 27 -6 34 -8 10 -8 21 1 40 10 21 9 28 -1 34 -7 4 -9
12 -4 16 5 4 11 2 13 -4 6 -18 33 -16 33 2 0 8 -4 15 -9 15 -5 0 -7 9 -4 19 3
13 -2 21 -16 26 -12 3 -21 12 -21 19 0 8 -6 19 -14 26 -8 6 -13 17 -10 24 3 7
-5 23 -16 36 -12 14 -24 37 -27 52 -3 16 -9 28 -14 28 -5 0 -9 9 -9 20 0 11
-4 20 -10 20 -5 0 -10 5 -10 11 0 5 5 7 10 4 6 -3 10 1 10 9 0 8 -8 19 -17 25
-14 8 -15 12 -4 25 12 14 12 16 -1 11 -11 -4 -15 4 -17 36 -1 23 -5 49 -10 58
-12 26 -1 225 14 239 3 4 9 1 13 -5 4 -7 20 -17 36 -23 23 -9 26 -13 16 -25
-10 -12 -10 -15 3 -15 8 0 17 9 20 20 3 12 14 20 27 20 15 0 20 5 17 14 -3 8
4 21 18 30 32 21 45 20 45 -3 0 -51 35 -62 143 -45 31 6 37 11 37 30 0 28 8
30 26 7 12 -17 13 -16 14 6 0 43 -24 95 -59 126 -42 37 -72 50 -82 34 -4 -6
-12 -8 -18 -5 -6 4 -17 4 -23 -1 -7 -4 -15 -8 -18 -8 -3 -1 -23 -4 -45 -8
-128 -23 -174 -14 -171 34 1 16 -1 34 -5 41 -4 7 -3 20 2 29 6 12 5 19 -3 21
-7 3 -9 11 -3 24 4 10 7 26 6 36 -1 9 3 19 9 23 17 10 11 25 -7 18 -17 -7 -17
-6 -1 10 9 10 15 25 12 35 -5 13 -4 14 4 3 14 -19 31 -5 25 19 -3 11 0 26 6
34 8 9 9 37 5 85 -5 49 -3 71 4 71 6 0 9 7 6 15 -4 8 -1 15 5 15 6 0 8 7 5 15
-4 8 -1 21 5 29 6 7 9 20 6 29 -7 16 38 57 61 57 8 0 14 5 14 10 0 14 -27 12
-33 -2 -4 -10 -6 -10 -6 0 -1 7 6 15 14 18 8 4 15 15 15 26 0 37 114 109 143
91 6 -3 7 -2 4 3 -3 6 33 18 81 28 123 26 122 25 123 49 1 17 2 18 6 5 3 -12
14 -18 34 -18z m-401 -160 c0 -5 -4 -10 -10 -10 -5 0 -10 5 -10 10 0 6 5 10
10 10 6 0 10 -4 10 -10z m1937 -406 c-3 -3 -12 -4 -19 -1 -8 3 -5 6 6 6 11 1
17 -2 13 -5z m-5 -69 c-2 -14 -6 -25 -8 -25 -2 0 -4 11 -4 25 0 14 4 25 9 25
4 0 6 -11 3 -25z m138 -9 c0 -3 -4 -8 -10 -11 -5 -3 -10 -1 -10 4 0 6 5 11 10
11 6 0 10 -2 10 -4z m-53 -48 c-3 -8 -6 -5 -6 6 -1 11 2 17 5 13 3 -3 4 -12 1
-19z m217 -3 c3 -8 -2 -19 -13 -24 -16 -9 -17 -7 -13 14 5 28 17 33 26 10z
m-167 -17 c-3 -8 -6 -5 -6 6 -1 11 2 17 5 13 3 -3 4 -12 1 -19z m-57 -8 c0 -5
-4 -10 -10 -10 -5 0 -10 5 -10 10 0 6 5 10 10 10 6 0 10 -4 10 -10z m-43 -22
c-3 -8 -6 -5 -6 6 -1 11 2 17 5 13 3 -3 4 -12 1 -19z m-837 2 c0 -5 -2 -10 -4
-10 -3 0 -8 5 -11 10 -3 6 -1 10 4 10 6 0 11 -4 11 -10z m817 -72 c-3 -7 -5
-2 -5 12 0 14 2 19 5 13 2 -7 2 -19 0 -25z m-1149 -68 c13 0 22 -6 22 -15 0
-11 -12 -15 -49 -15 -27 0 -68 -7 -91 -15 -53 -19 -60 -19 -60 0 0 24 78 57
120 50 19 -2 45 -5 58 -5z m-1233 -9 c3 -5 1 -12 -5 -16 -5 -3 -10 1 -10 9 0
18 6 21 15 7z m2570 -1 c3 -5 1 -10 -4 -10 -6 0 -11 5 -11 10 0 6 2 10 4 10 3
0 8 -4 11 -10z m-1969 -21 c12 -12 7 -14 -34 -15 -26 0 -71 -3 -100 -6 -52 -6
-53 -6 -37 12 28 31 143 36 171 9z m2311 -35 c-3 -3 -12 -4 -19 -1 -8 3 -5 6
6 6 11 1 17 -2 13 -5z m-3727 -84 c0 -5 -4 -10 -10 -10 -5 0 -10 5 -10 10 0 6
5 10 10 10 6 0 10 -4 10 -10z m36 -27 c-11 -11 -19 6 -11 24 8 17 8 17 12 0 3
-10 2 -21 -1 -24z m-29 -35 c-3 -7 -5 -2 -5 12 0 14 2 19 5 13 2 -7 2 -19 0
-25z m793 -32 c0 -3 -4 -8 -10 -11 -5 -3 -10 -1 -10 4 0 6 5 11 10 11 6 0 10
-2 10 -4z m2810 0 c0 -2 -9 -6 -20 -9 -11 -3 -18 -1 -14 4 5 9 34 13 34 5z
m77 -32 c-3 -3 -12 -4 -19 -1 -8 3 -5 6 6 6 11 1 17 -2 13 -5z m-2917 -35 c0
-5 -9 -9 -20 -9 -11 0 -20 4 -20 8 0 4 9 8 20 9 11 1 20 -2 20 -8z m-80 -94
c0 -14 -2 -25 -4 -25 -2 0 -6 11 -8 25 -3 14 -1 25 3 25 5 0 9 -11 9 -25z
m2963 -122 c-7 -2 -19 -2 -25 0 -7 3 -2 5 12 5 14 0 19 -2 13 -5z m100 0 c-7
-2 -19 -2 -25 0 -7 3 -2 5 12 5 14 0 19 -2 13 -5z m-1513 -137 c0 -3 -4 -8
-10 -11 -5 -3 -10 -1 -10 4 0 6 5 11 10 11 6 0 10 -2 10 -4z m-43 -122 c-3 -3
-12 -4 -19 -1 -8 3 -5 6 6 6 11 1 17 -2 13 -5z m1543 -294 c0 -5 -5 -10 -11
-10 -5 0 -7 5 -4 10 3 6 8 10 11 10 2 0 4 -4 4 -10z m-3047 -102 c-6 -11 -43
-10 -43 1 0 5 11 8 24 7 13 0 22 -4 19 -8z m-113 -8 c0 -5 -2 -10 -4 -10 -3 0
-8 5 -11 10 -3 6 -1 10 4 10 6 0 11 -4 11 -10z m145 -120 c3 -5 -3 -10 -15
-10 -12 0 -18 5 -15 10 3 6 10 10 15 10 5 0 12 -4 15 -10z m-235 -30 c0 -5 -2
-10 -4 -10 -3 0 -8 5 -11 10 -3 6 -1 10 4 10 6 0 11 -4 11 -10z m155 -15 c6
-2 -8 -4 -30 -5 -31 -1 -35 -3 -20 -9 11 -5 31 -4 43 0 13 5 29 6 35 2 15 -9
-20 -21 -66 -22 -35 -1 -37 -3 -27 -21 7 -14 7 -20 0 -20 -5 0 -10 4 -10 10 0
5 -7 7 -15 4 -8 -4 -15 -1 -15 5 0 6 5 11 11 11 5 0 7 5 3 11 -3 6 0 15 7 20
11 7 10 9 -3 9 -10 0 -18 4 -18 9 0 8 79 5 105 -4z m75 -1 c0 -12 -3 -14 -12
-6 -7 5 -22 12 -33 15 -13 3 -9 5 13 6 23 1 32 -3 32 -15z m-180 -24 c0 -5 -4
-10 -9 -10 -6 0 -13 5 -16 10 -3 6 1 10 9 10 9 0 16 -4 16 -10z m130 -30 c0
-5 -8 -10 -17 -10 -15 0 -16 2 -3 10 19 12 20 12 20 0z m-492 -38 c2 -7 -2
-10 -12 -6 -9 3 -16 11 -16 16 0 13 23 5 28 -10z m305 -12 c-7 -28 -13 -25
-13 6 0 14 4 23 9 20 5 -3 7 -15 4 -26z m217 19 c0 -5 -34 -9 -76 -9 -48 0
-73 -4 -69 -10 4 -6 10 -8 14 -6 4 3 13 1 21 -5 12 -7 11 -9 -5 -9 -19 -1 -19
-1 -1 -15 10 -8 15 -19 10 -26 -5 -9 -11 -7 -21 7 -13 17 -14 15 -7 -21 4 -22
12 -44 18 -48 6 -5 -2 -6 -17 -2 -21 4 -28 2 -25 -7 3 -7 14 -14 26 -16 12 -2
22 -7 22 -12 0 -14 -33 -21 -41 -9 -4 8 -10 6 -17 -6 -11 -22 -42 -14 -42 11
0 10 5 14 15 11 20 -8 28 8 10 23 -22 18 -48 -11 -39 -45 7 -27 -4 -33 -24
-13 -17 17 -15 -4 3 -28 11 -14 17 -16 23 -7 5 8 13 9 22 3 13 -8 12 -12 -5
-24 -25 -19 -35 -20 -35 -2 0 15 -27 29 -40 21 -4 -3 -6 14 -3 37 3 24 2 40
-2 36 -10 -10 -37 11 -29 23 3 5 -18 8 -47 7 l-52 -1 24 -18 24 -19 -22 0
c-13 0 -23 5 -23 10 0 6 -9 10 -21 10 -11 0 -18 4 -15 9 3 5 -3 11 -14 14 -11
3 -20 10 -20 16 0 14 27 14 35 1 7 -12 45 -14 45 -2 0 4 -5 13 -12 20 -12 12
24 11 115 -3 17 -3 26 -1 22 5 -3 6 -27 11 -53 11 -27 1 -36 4 -22 6 14 3 30
9 35 15 7 6 0 7 -19 2 -18 -4 -27 -3 -23 3 3 5 0 10 -8 10 -8 0 -12 -4 -9 -9
3 -5 -5 -6 -18 -3 -12 3 -40 7 -60 8 -71 5 -51 17 28 17 43 0 86 5 94 10 13 8
12 10 -3 10 -33 0 -9 16 27 18 30 2 36 -1 36 -18 0 -11 7 -20 15 -20 8 0 15
-4 15 -8 0 -5 14 -7 30 -4 32 5 37 11 18 30 -9 9 -8 12 3 16 42 14 189 18 189
5z m-240 -15 c0 -8 -4 -12 -10 -9 -5 3 -10 10 -10 16 0 5 5 9 10 9 6 0 10 -7
10 -16z m3435 6 c-3 -5 -11 -10 -16 -10 -6 0 -7 5 -4 10 3 6 11 10 16 10 6 0
7 -4 4 -10z m-3567 -7 c-10 -2 -26 -2 -35 0 -10 3 -2 5 17 5 19 0 27 -2 18 -5z
m368 -18 c-4 -11 2 -15 21 -15 16 0 23 -4 18 -8 -6 -5 -37 -6 -70 -2 -33 4
-49 8 -35 9 23 2 23 3 5 11 -17 6 -14 8 15 12 19 3 39 6 44 6 4 1 6 -5 2 -13z
m-659 -21 c-3 -3 -12 -4 -19 -1 -8 3 -5 6 6 6 11 1 17 -2 13 -5z m660 -20 c-3
-3 -12 -4 -19 -1 -8 3 -5 6 6 6 11 1 17 -2 13 -5z m-50 -20 c-3 -3 -12 -4 -19
-1 -8 3 -5 6 6 6 11 1 17 -2 13 -5z m1083 -34 c0 -13 -11 -13 -30 0 -12 8 -11
10 8 10 12 0 22 -4 22 -10z m-1520 -10 c0 -5 7 -10 15 -10 8 0 15 -4 15 -9 0
-5 -19 -10 -42 -10 -24 -1 -52 -2 -62 -3 -10 -2 -21 3 -23 10 -3 8 6 12 26 12
17 0 31 5 31 10 0 6 9 10 20 10 11 0 20 -4 20 -10z m1510 -21 c0 -14 -16 -11
-29 5 -10 12 -8 13 8 9 12 -3 21 -9 21 -14z m-1350 -9 c0 -11 7 -20 15 -20 8
0 15 -7 15 -15 0 -18 -21 -20 -39 -2 -11 10 -14 10 -18 0 -5 -15 -43 -18 -43
-4 0 5 9 11 21 14 16 4 19 11 14 26 -5 17 -2 21 14 21 14 0 21 -6 21 -20z
m270 13 c0 -5 -5 -15 -10 -23 -8 -12 -10 -11 -10 8 0 12 5 22 10 22 6 0 10 -3
10 -7z m-555 -13 c3 -5 1 -10 -5 -10 -7 0 -10 -7 -7 -15 4 -8 2 -17 -2 -20
-10 -5 -21 41 -13 50 8 8 20 6 27 -5z m3710 -12 l28 -22 -54 -13 c-79 -18 -87
-16 -49 12 19 14 27 25 19 25 -12 0 -12 2 1 10 21 13 24 13 55 -12z m35 12 c0
-5 -4 -10 -10 -10 -5 0 -10 5 -10 10 0 6 5 10 10 10 6 0 10 -4 10 -10z m-3123
-6 c-3 -3 -12 -4 -19 -1 -8 3 -5 6 6 6 11 1 17 -2 13 -5z m-700 -20 c-3 -3
-12 -4 -19 -1 -8 3 -5 6 6 6 11 1 17 -2 13 -5z m207 -32 c-8 -8 -21 -11 -29
-8 -8 3 -15 0 -15 -6 0 -6 -3 -9 -6 -6 -3 4 2 18 11 32 14 21 20 23 35 14 15
-10 16 -13 4 -26z m466 34 c0 -2 -7 -6 -15 -10 -8 -3 -15 -1 -15 4 0 6 7 10
15 10 8 0 15 -2 15 -4z m-516 -15 c3 -5 -4 -11 -17 -15 -34 -9 -39 -7 -25 9
15 16 34 19 42 6z m383 -8 c-4 -3 -2 -12 4 -20 9 -10 8 -13 -5 -13 -10 0 -14
5 -11 10 3 6 -2 10 -12 11 -16 0 -16 1 2 9 25 11 30 12 22 3z m1893 -13 c0 -5
-4 -10 -10 -10 -5 0 -10 5 -10 10 0 6 5 10 10 10 6 0 10 -4 10 -10z m-2100
-11 c0 -7 8 -18 18 -25 16 -13 16 -13 0 -14 -19 0 -58 29 -58 42 0 5 9 8 20 8
11 0 20 -5 20 -11z m300 1 c0 -5 -4 -10 -10 -10 -5 0 -10 5 -10 10 0 6 5 10
10 10 6 0 10 -4 10 -10z m50 0 c0 -5 -4 -10 -10 -10 -5 0 -10 5 -10 10 0 6 5
10 10 10 6 0 10 -4 10 -10z m-620 -10 c0 -5 -6 -10 -14 -10 -8 0 -18 5 -21 10
-3 6 3 10 14 10 12 0 21 -4 21 -10z m70 -10 c0 -5 -7 -10 -15 -10 -8 0 -15 5
-15 10 0 6 7 10 15 10 8 0 15 -4 15 -10z m50 -7 c-8 -3 -18 -11 -22 -17 -4 -6
-10 -7 -15 -3 -9 10 16 27 37 26 13 -1 13 -1 0 -6z m250 -8 c0 -8 5 -15 10
-15 6 0 10 -5 10 -10 0 -6 -11 -3 -25 6 -14 9 -25 13 -25 10 0 -4 -5 -4 -11 0
-8 4 -7 9 2 15 21 13 39 11 39 -6z m2130 -5 c0 -5 -4 -10 -10 -10 -5 0 -10 5
-10 10 0 6 5 10 10 10 6 0 10 -4 10 -10z m-2436 -25 c-4 -8 -7 -15 -9 -15 -2
0 -5 7 -9 15 -3 9 0 15 9 15 9 0 12 -6 9 -15z m83 9 c-3 -3 -12 -4 -19 -1 -8
3 -5 6 6 6 11 1 17 -2 13 -5z m271 -19 c1 -13 -3 -27 -8 -30 -11 -7 -14 38 -3
48 9 9 8 10 11 -18z m-122 6 c-5 -8 -56 -3 -56 5 0 2 14 4 31 4 16 0 28 -4 25
-9z m2234 -9 c-8 -3 -18 -10 -22 -16 -5 -7 -8 -5 -8 6 0 18 19 29 35 20 5 -3
2 -8 -5 -10z m-2340 -30 c0 -38 -1 -38 -32 -33 -32 5 -32 6 -5 9 21 3 27 8 26
25 -1 17 -2 18 -6 5 -7 -27 -63 -25 -63 2 0 11 5 20 10 20 6 0 10 -7 10 -15 0
-8 5 -15 10 -15 6 0 10 6 10 14 0 8 8 17 18 19 9 3 18 5 20 6 1 0 2 -16 2 -37z
m165 28 c3 -5 -1 -10 -10 -10 -9 0 -13 5 -10 10 3 6 8 10 10 10 2 0 7 -4 10
-10z m-265 -22 c0 -16 -3 -19 -11 -11 -6 6 -8 16 -5 22 11 17 16 13 16 -11z
m180 -4 c0 -2 -7 -4 -15 -4 -8 0 -15 4 -15 10 0 5 7 7 15 4 8 -4 15 -8 15 -10z
m320 6 c0 -5 -7 -7 -15 -4 -8 4 -15 8 -15 10 0 2 7 4 15 4 8 0 15 -4 15 -10z
m-200 -9 c0 -6 -4 -13 -10 -16 -5 -3 -10 1 -10 9 0 9 5 16 10 16 6 0 10 -4 10
-9z m70 -1 c0 -5 -2 -10 -4 -10 -3 0 -8 5 -11 10 -3 6 -1 10 4 10 6 0 11 -4
11 -10z m30 1 c0 -6 -4 -13 -10 -16 -5 -3 -10 1 -10 9 0 9 5 16 10 16 6 0 10
-4 10 -9z m130 -11 c0 -5 -2 -10 -4 -10 -3 0 -8 5 -11 10 -3 6 -1 10 4 10 6 0
11 -4 11 -10z m-43 -6 c-3 -3 -12 -4 -19 -1 -8 3 -5 6 6 6 11 1 17 -2 13 -5z
m-457 -8 c0 -2 -7 -6 -15 -10 -8 -3 -15 -1 -15 4 0 6 7 10 15 10 8 0 15 -2 15
-4z m150 -5 c19 -5 21 -8 10 -13 -9 -3 -29 0 -45 7 -22 10 -25 13 -10 13 11 0
31 -3 45 -7z m156 -6 c7 -18 31 -20 37 -2 4 9 7 9 18 0 17 -16 11 -20 -31 -25
-24 -2 -34 1 -32 10 1 6 -2 12 -8 12 -5 0 -10 5 -10 10 0 16 20 12 26 -5z
m-256 -21 c0 -2 -15 -4 -32 -3 -27 0 -29 2 -13 8 18 8 45 4 45 -5z m2457 -130
c-3 -3 -12 -4 -19 -1 -8 3 -5 6 6 6 11 1 17 -2 13 -5z m-11 -189 c0 -14 -6
-25 -12 -25 -7 0 -9 10 -6 25 6 32 20 32 18 0z m-19 -197 c-3 -7 -5 -2 -5 12
0 14 2 19 5 13 2 -7 2 -19 0 -25z m1 -35 c14 -12 14 -13 -2 -13 -12 0 -16 -5
-12 -16 3 -8 2 -13 -2 -10 -5 3 -9 22 -9 43 -1 21 1 31 4 23 3 -8 12 -21 21
-27z"/>
<path d="M1380 3230 c-13 -8 -12 -10 3 -10 9 0 17 5 17 10 0 12 -1 12 -20 0z"/>
<path d="M2210 2969 c0 -5 5 -7 10 -4 6 3 10 8 10 11 0 2 -4 4 -10 4 -5 0 -10
-5 -10 -11z"/>
<path d="M1443 2319 c-15 -11 -38 -19 -51 -19 -43 0 -17 -25 30 -28 31 -2 49
2 58 13 7 8 19 15 26 15 8 0 14 6 14 14 0 22 -46 25 -77 5z"/>
<path d="M1815 1981 c-10 -10 -4 -23 8 -18 17 6 41 -29 26 -39 -6 -3 -8 -12
-6 -19 4 -9 -5 -10 -36 -4 -55 11 -59 11 -53 0 4 -5 -7 -12 -24 -16 -17 -4
-35 -15 -40 -25 -6 -10 -19 -21 -30 -25 -11 -3 -19 -12 -17 -18 1 -7 -9 -12
-25 -11 -35 1 -35 -5 1 -41 17 -15 31 -37 33 -48 2 -11 12 -21 22 -23 18 -2
35 -20 36 -35 0 -4 -12 -14 -26 -24 -28 -18 -46 -18 -161 8 -50 11 -63 11 -63
1 0 -7 -5 -14 -12 -16 -6 -2 -9 -9 -5 -15 4 -6 44 -10 94 -11 48 0 101 -5 116
-11 16 -6 43 -11 60 -11 38 0 107 -18 107 -28 0 -8 -97 -40 -145 -48 -16 -3
-32 -7 -34 -10 -9 -9 15 -37 35 -41 54 -9 145 -6 156 5 7 7 21 12 33 12 12 0
27 6 34 13 11 10 14 10 18 0 3 -8 21 -12 46 -12 l42 2 -40 7 c-30 5 -36 8 -23
14 10 5 15 13 12 18 -4 6 -9 7 -13 1 -3 -6 -19 -13 -36 -17 -24 -6 -28 -5 -17
5 6 7 12 21 12 30 0 10 6 20 13 22 9 4 9 7 -1 15 -9 6 1 15 37 30 28 11 51 27
51 34 0 7 13 22 30 33 35 24 20 38 -31 29 -77 -12 -96 -13 -130 -8 l-37 5 19
39 c10 21 24 40 31 42 18 6 21 128 3 148 -7 8 -16 27 -20 42 -5 18 -13 26 -26
25 -11 -1 -22 -3 -24 -6z m70 -431 c-3 -5 -10 -10 -16 -10 -5 0 -9 5 -9 10 0
6 7 10 16 10 8 0 12 -4 9 -10z"/>
<path d="M1530 1851 c0 -11 42 -43 48 -37 2 2 -3 13 -10 25 -13 21 -38 29 -38
12z"/>
<path d="M1970 1450 c-12 -8 -9 -10 13 -10 15 0 27 5 27 10 0 13 -20 13 -40 0z"/>
<path d="M1928 1423 c6 -2 18 -2 25 0 6 3 1 5 -13 5 -14 0 -19 -2 -12 -5z"/>
<path d="M1980 1426 c0 -2 7 -6 15 -10 8 -3 15 -1 15 4 0 6 -7 10 -15 10 -8 0
-15 -2 -15 -4z"/>
<path d="M1965 1400 c3 -5 8 -10 11 -10 2 0 4 5 4 10 0 6 -5 10 -11 10 -5 0
-7 -4 -4 -10z"/>
<path d="M487 1008 c-7 -5 -3 -8 11 -8 12 0 22 -4 22 -10 0 -5 7 -10 15 -10 8
0 14 3 14 8 -3 18 3 21 26 12 18 -7 25 -6 25 3 0 14 -93 18 -113 5z"/>
<path d="M610 970 c0 -5 5 -10 11 -10 5 0 7 5 4 10 -3 6 -8 10 -11 10 -2 0 -4
-4 -4 -10z"/>
<path d="M408 953 c6 -2 18 -2 25 0 6 3 1 5 -13 5 -14 0 -19 -2 -12 -5z"/>
<path d="M477 949 c7 -7 15 -10 18 -7 3 3 -2 9 -12 12 -14 6 -15 5 -6 -5z"/>
<path d="M1390 3819 c0 -5 5 -7 10 -4 6 3 10 8 10 11 0 2 -4 4 -10 4 -5 0 -10
-5 -10 -11z"/>
<path d="M1535 3710 c-3 -5 -1 -10 4 -10 6 0 11 5 11 10 0 6 -2 10 -4 10 -3 0
-8 -4 -11 -10z"/>
<path d="M3310 2929 c0 -5 5 -7 10 -4 6 3 10 8 10 11 0 2 -4 4 -10 4 -5 0 -10
-5 -10 -11z"/>
<path d="M3238 2888 c9 -9 15 -9 24 0 9 9 7 12 -12 12 -19 0 -21 -3 -12 -12z"/>
<path d="M3320 2881 c-7 -15 -7 -21 0 -21 12 0 25 28 17 36 -3 3 -10 -4 -17
-15z"/>
<path d="M3530 2789 c0 -5 5 -7 10 -4 6 3 10 8 10 11 0 2 -4 4 -10 4 -5 0 -10
-5 -10 -11z"/>
<path d="M3600 2740 c0 -5 4 -10 9 -10 6 0 13 5 16 10 3 6 -1 10 -9 10 -9 0
-16 -4 -16 -10z"/>
<path d="M3626 2685 c-3 -8 -1 -15 4 -15 6 0 10 7 10 15 0 8 -2 15 -4 15 -2 0
-6 -7 -10 -15z"/>
<path d="M3973 2655 c0 -22 2 -30 4 -17 2 12 2 30 0 40 -3 9 -5 -1 -4 -23z"/>
<path d="M3760 2637 c0 -28 6 -32 26 -19 8 5 5 13 -7 26 -19 19 -19 19 -19 -7z"/>
<path d="M3680 2585 c-5 -48 4 -65 25 -44 10 9 11 19 5 29 -9 13 -10 13 -11 0
0 -8 -5 -4 -9 10 -7 22 -8 22 -10 5z"/>
<path d="M3845 2590 c-3 -5 1 -10 10 -10 9 0 13 5 10 10 -3 6 -8 10 -10 10 -2
0 -7 -4 -10 -10z"/>
<path d="M124 2494 c-4 -10 -9 -22 -11 -26 -2 -5 0 -8 6 -8 11 0 26 39 17 47
-3 3 -9 -3 -12 -13z"/>
<path d="M3865 2440 c-3 -5 -1 -10 4 -10 6 0 11 5 11 10 0 6 -2 10 -4 10 -3 0
-8 -4 -11 -10z"/>
<path d="M342 2410 c0 -14 2 -19 5 -12 2 6 2 18 0 25 -3 6 -5 1 -5 -13z"/>
<path d="M761 2194 c0 -11 3 -14 6 -6 3 7 2 16 -1 19 -3 4 -6 -2 -5 -13z"/>
<path d="M3360 2090 c0 -5 5 -10 10 -10 6 0 10 5 10 10 0 6 -4 10 -10 10 -5 0
-10 -4 -10 -10z"/>
<path d="M3420 2090 c0 -5 12 -10 28 -9 24 0 25 1 7 9 -27 12 -35 12 -35 0z"/>
<path d="M2271 714 c0 -11 3 -14 6 -6 3 7 2 16 -1 19 -3 4 -6 -2 -5 -13z"/>
<path d="M2643 683 c-18 -7 -16 -23 2 -23 8 0 15 7 15 15 0 8 -1 15 -2 14 -2
0 -9 -3 -15 -6z"/>
<path d="M1565 500 c-3 -5 -1 -10 4 -10 6 0 11 5 11 10 0 6 -2 10 -4 10 -3 0
-8 -4 -11 -10z"/>
</g>
</svg>
